<svg width="50" height="50" viewBox="0 0 50 50" fill="none" xmlns="http://www.w3.org/2000/svg">
<path d="M11.5979 15.6729C12.2083 13.425 14.475 7.79688 16.1625 7.79688C18.1875 7.79688 20.4375 12.9156 20.4375 12.9156M4.85625 25.8531L9.95625 27.5594M5.91562 36.0302L10.1437 33.4281M4.6875 30.6906H10.1437" stroke="white" stroke-width="1.04167" stroke-linecap="round" stroke-linejoin="round"/>
<path d="M17.9063 28.1605C19.1104 28.1605 20.0865 27.1844 20.0865 25.9803C20.0865 24.7762 19.1104 23.8 17.9063 23.8C16.7022 23.8 15.7261 24.7762 15.7261 25.9803C15.7261 27.1844 16.7022 28.1605 17.9063 28.1605Z" stroke="white" stroke-width="1.04167" stroke-linecap="round" stroke-linejoin="round"/>
<path d="M25.0001 42.2041H28.9438C41.2813 42.2041 42.1813 32.5656 42.1813 28.9656V25.375C42.1813 13.7573 33.3313 12.9166 28.3803 12.9166H21.6199C16.6688 12.9166 7.81885 13.7562 7.81885 25.375V28.9666C7.81885 32.5666 8.71885 42.2041 21.0563 42.2041H25.0001Z" stroke="white" stroke-width="1.04167" stroke-linecap="round" stroke-linejoin="round"/>
<path d="M38.4021 15.6729C37.7917 13.425 35.525 7.79688 33.8375 7.79688C31.8125 7.79688 29.5625 12.9156 29.5625 12.9156M45.1438 25.8531L40.0438 27.5594M44.0844 36.0302L39.8563 33.4281M45.3125 30.6906H39.8563" stroke="white" stroke-width="1.04167" stroke-linecap="round" stroke-linejoin="round"/>
<path d="M32.0938 28.1605C33.2979 28.1605 34.274 27.1844 34.274 25.9803C34.274 24.7762 33.2979 23.8 32.0938 23.8C30.8897 23.8 29.9136 24.7762 29.9136 25.9803C29.9136 27.1844 30.8897 28.1605 32.0938 28.1605Z" stroke="white" stroke-width="1.04167" stroke-linecap="round" stroke-linejoin="round"/>
<path d="M25.6418 31.226L27.4334 28.8447C27.5234 28.7256 27.5783 28.5837 27.592 28.435C27.6057 28.2863 27.5777 28.1368 27.511 28.0032C27.4443 27.8696 27.3416 27.7573 27.2146 27.6788C27.0875 27.6004 26.9411 27.559 26.7918 27.5593H23.2084C23.0591 27.559 22.9127 27.6004 22.7856 27.6788C22.6586 27.7573 22.5559 27.8696 22.4892 28.0032C22.4225 28.1368 22.3945 28.2863 22.4082 28.435C22.4219 28.5837 22.4768 28.7256 22.5668 28.8447L24.3584 31.226C24.4332 31.3256 24.53 31.4065 24.6414 31.4621C24.7528 31.5178 24.8756 31.5468 25.0001 31.5468C25.1246 31.5468 25.2474 31.5178 25.3588 31.4621C25.4702 31.4065 25.5671 31.3256 25.6418 31.226Z" stroke="white" stroke-width="1.04167" stroke-linecap="round" stroke-linejoin="round"/>
</svg>
