<svg width="50" height="50" viewBox="0 0 50 50" fill="none" xmlns="http://www.w3.org/2000/svg">
<path d="M19.5312 27.3437C19.5312 27.6528 19.4395 27.9549 19.2678 28.2118C19.0961 28.4688 18.8521 28.669 18.5666 28.7873C18.2811 28.9056 17.9669 28.9365 17.6638 28.8762C17.3607 28.8159 17.0823 28.6671 16.8638 28.4486C16.6453 28.2301 16.4965 27.9517 16.4362 27.6486C16.3759 27.3455 16.4068 27.0313 16.5251 26.7458C16.6434 26.4603 16.8436 26.2162 17.1006 26.0446C17.3575 25.8729 17.6596 25.7812 17.9687 25.7812C18.3831 25.7812 18.7805 25.9458 19.0735 26.2389C19.3665 26.5319 19.5312 26.9293 19.5312 27.3437ZM32.0312 28.9062C32.3402 28.9062 32.6423 28.8146 32.8992 28.6429C33.1562 28.4712 33.3565 28.2272 33.4747 27.9417C33.593 27.6562 33.6239 27.342 33.5636 27.0389C33.5033 26.7358 33.3545 26.4574 33.136 26.2389C32.9175 26.0204 32.6391 25.8715 32.336 25.8113C32.0329 25.751 31.7187 25.7819 31.4332 25.9002C31.1477 26.0184 30.9037 26.2187 30.732 26.4757C30.5603 26.7326 30.4687 27.0347 30.4687 27.3437C30.4687 27.7581 30.6333 28.1556 30.9263 28.4486C31.2193 28.7416 31.6168 28.9062 32.0312 28.9062ZM45.1366 27.4023C44.6596 27.6232 44.1218 27.6759 43.611 27.5518C43.1002 27.4276 42.6465 27.1339 42.3241 26.7187L41.4062 25.5469V35.9375C41.4062 37.8023 40.6654 39.5907 39.3467 40.9093C38.0281 42.2279 36.2397 42.9687 34.3749 42.9687H15.6249C13.7601 42.9687 11.9717 42.2279 10.6531 40.9093C9.33444 39.5907 8.59365 37.8023 8.59365 35.9375V25.5469L7.67568 26.7187C7.35328 27.1339 6.89964 27.4276 6.38883 27.5518C5.87801 27.6759 5.3402 27.6232 4.86318 27.4023C4.38158 27.1933 3.98664 26.8248 3.74476 26.3589C3.50289 25.8929 3.42884 25.3579 3.53506 24.8437L6.73818 7.73435C6.79513 7.41956 6.91644 7.11991 7.09453 6.85417C7.27262 6.58842 7.50365 6.3623 7.77316 6.18996C8.04267 6.01763 8.34486 5.90278 8.6608 5.85261C8.97674 5.80244 9.29964 5.81804 9.60928 5.89842L20.4101 8.59373H29.5897L40.3905 5.89842C40.7002 5.81804 41.0231 5.80244 41.339 5.85261C41.6549 5.90278 41.9571 6.01763 42.2266 6.18996C42.4962 6.3623 42.7272 6.58842 42.9053 6.85417C43.0834 7.11991 43.2047 7.41956 43.2616 7.73435L46.4647 24.8437C46.571 25.3579 46.4969 25.8929 46.255 26.3589C46.0132 26.8248 45.6182 27.1933 45.1366 27.4023ZM18.9452 9.84373L9.23818 7.40232H9.04287C8.88852 7.39949 8.73752 7.44753 8.61318 7.53904C8.526 7.59642 8.45154 7.67111 8.39442 7.75846C8.33731 7.84582 8.29875 7.94398 8.28115 8.04685L5.05849 25.1172C5.01792 25.2919 5.03868 25.4752 5.11729 25.6364C5.1959 25.7976 5.32757 25.9268 5.4902 26.0024C5.65283 26.078 5.83651 26.0953 6.01041 26.0515C6.18431 26.0077 6.33783 25.9053 6.44521 25.7617L18.9452 9.84373ZM39.8437 23.5742L29.3163 10.1562H20.6835L10.1562 23.5742V35.9375C10.1613 37.3863 10.7391 38.7743 11.7636 39.7988C12.7881 40.8233 14.1761 41.4011 15.6249 41.4062H24.2187V37.832L21.328 34.9219C21.2152 34.7714 21.1604 34.5853 21.1737 34.3977C21.1871 34.2101 21.2676 34.0337 21.4006 33.9007C21.5336 33.7677 21.7101 33.6872 21.8976 33.6738C22.0852 33.6605 22.2713 33.7153 22.4218 33.8281L24.9999 36.3867L27.578 33.8281C27.7285 33.7153 27.9146 33.6605 28.1022 33.6738C28.2897 33.6872 28.4662 33.7677 28.5992 33.9007C28.7322 34.0337 28.8127 34.2101 28.8261 34.3977C28.8394 34.5853 28.7846 34.7714 28.6718 34.9219L25.7812 37.832V41.4062H34.3749C35.8237 41.4011 37.2117 40.8233 38.2362 39.7988C39.2607 38.7743 39.8385 37.3863 39.8437 35.9375V23.5742ZM44.9413 25.1172L41.7187 8.02732C41.7011 7.92445 41.6625 7.82629 41.6054 7.73893C41.5483 7.65158 41.4738 7.57689 41.3866 7.51951C41.2002 7.40381 40.9773 7.36201 40.7616 7.40232L31.0546 9.84373L43.5546 25.7617C43.662 25.9053 43.8155 26.0077 43.9894 26.0515C44.1633 26.0953 44.347 26.078 44.5096 26.0024C44.6722 25.9268 44.8039 25.7976 44.8825 25.6364C44.9611 25.4752 44.9819 25.2919 44.9413 25.1172Z" fill="white"/>
</svg>
