<svg width="50" height="50" viewBox="0 0 50 50" fill="none" xmlns="http://www.w3.org/2000/svg">
<path d="M17.9688 27.3438C17.9688 27.6528 17.8771 27.9549 17.7054 28.2119C17.5337 28.4688 17.2897 28.6691 17.0042 28.7873C16.7187 28.9056 16.4045 28.9365 16.1014 28.8763C15.7983 28.816 15.5199 28.6672 15.3014 28.4486C15.0829 28.2301 14.9341 27.9517 14.8738 27.6486C14.8135 27.3455 14.8444 27.0313 14.9627 26.7458C15.081 26.4603 15.2812 26.2163 15.5382 26.0446C15.7951 25.8729 16.0972 25.7813 16.4063 25.7813C16.8207 25.7813 17.2181 25.9459 17.5111 26.2389C17.8041 26.5319 17.9688 26.9294 17.9688 27.3438ZM33.5938 25.7813C33.2847 25.7813 32.9826 25.8729 32.7257 26.0446C32.4687 26.2163 32.2685 26.4603 32.1502 26.7458C32.0319 27.0313 32.001 27.3455 32.0613 27.6486C32.1216 27.9517 32.2704 28.2301 32.4889 28.4486C32.7074 28.6672 32.9858 28.816 33.2889 28.8763C33.592 28.9365 33.9062 28.9056 34.1917 28.7873C34.4772 28.6691 34.7212 28.4688 34.8929 28.2119C35.0646 27.9549 35.1563 27.6528 35.1563 27.3438C35.1563 26.9294 34.9916 26.5319 34.6986 26.2389C34.4056 25.9459 34.0082 25.7813 33.5938 25.7813ZM44.5313 10.0196V26.5625C44.5313 36.4649 35.7617 44.5313 25 44.5313C14.2383 44.5313 5.46876 36.4649 5.46876 26.5625V10.0196C5.46762 9.55517 5.60445 9.10091 5.86191 8.71442C6.11937 8.32794 6.48583 8.02664 6.91481 7.84877C7.34378 7.67091 7.81593 7.62448 8.27133 7.7154C8.72673 7.80631 9.14486 8.03046 9.47266 8.3594L13.2813 12.1875C14.8602 11.1066 16.5826 10.2519 18.3984 9.64846C18.4673 9.6199 18.5395 9.60021 18.6133 9.58987C22.7676 8.26197 27.2324 8.26197 31.3867 9.58987C31.4605 9.60021 31.5327 9.6199 31.6016 9.64846C33.4174 10.2519 35.1398 11.1066 36.7188 12.1875L40.5273 8.3594C40.8551 8.03046 41.2733 7.80631 41.7287 7.7154C42.1841 7.62448 42.6562 7.67091 43.0852 7.84877C43.5142 8.02664 43.8806 8.32794 44.1381 8.71442C44.3956 9.10091 44.5324 9.55517 44.5313 10.0196ZM42.9688 10.0196C42.9684 9.8642 42.9218 9.71247 42.8348 9.58375C42.7479 9.45503 42.6245 9.35516 42.4805 9.2969C42.339 9.23843 42.1833 9.22393 42.0334 9.25529C41.8836 9.28664 41.7468 9.3624 41.6406 9.47268L37.3438 13.75C37.2118 13.8824 37.0368 13.963 36.8504 13.9774C36.6641 13.9917 36.4788 13.9388 36.3281 13.8282C35.0078 12.852 33.5627 12.0572 32.0313 11.4649V17.1875C32.0313 17.3947 31.9489 17.5934 31.8024 17.74C31.6559 17.8865 31.4572 17.9688 31.25 17.9688C31.0428 17.9688 30.8441 17.8865 30.6976 17.74C30.5511 17.5934 30.4688 17.3947 30.4688 17.1875V10.9375C28.9426 10.496 27.3687 10.2402 25.7813 10.1758V17.1875C25.7813 17.3947 25.6989 17.5934 25.5524 17.74C25.4059 17.8865 25.2072 17.9688 25 17.9688C24.7928 17.9688 24.5941 17.8865 24.4476 17.74C24.3011 17.5934 24.2188 17.3947 24.2188 17.1875V10.1758C22.6313 10.2402 21.0574 10.496 19.5313 10.9375V17.1875C19.5313 17.3947 19.4489 17.5934 19.3024 17.74C19.1559 17.8865 18.9572 17.9688 18.75 17.9688C18.5428 17.9688 18.3441 17.8865 18.1976 17.74C18.0511 17.5934 17.9688 17.3947 17.9688 17.1875V11.4649C16.4373 12.0572 14.9922 12.852 13.6719 13.8282C13.5212 13.9388 13.3359 13.9917 13.1496 13.9774C12.9632 13.963 12.7882 13.8824 12.6563 13.75L8.35938 9.47268C8.29158 9.40038 8.20999 9.3424 8.11942 9.30214C8.02885 9.26189 7.93113 9.24018 7.83204 9.23831C7.72781 9.2357 7.62412 9.25398 7.52707 9.29208C7.43001 9.33017 7.34157 9.3873 7.26694 9.46011C7.19231 9.53291 7.13302 9.61992 7.09254 9.716C7.05206 9.81209 7.03122 9.9153 7.03126 10.0196V26.5625C7.03126 35.3711 14.668 42.5781 24.2188 42.9492V37.8321L21.3281 34.9219C21.2153 34.7715 21.1605 34.5854 21.1738 34.3978C21.1872 34.2102 21.2677 34.0337 21.4007 33.9007C21.5337 33.7677 21.7102 33.6872 21.8978 33.6739C22.0853 33.6605 22.2714 33.7153 22.4219 33.8282L25 36.3867L27.5781 33.8282C27.7286 33.7153 27.9147 33.6605 28.1023 33.6739C28.2899 33.6872 28.4663 33.7677 28.5993 33.9007C28.7323 34.0337 28.8128 34.2102 28.8262 34.3978C28.8395 34.5854 28.7847 34.7715 28.6719 34.9219L25.7813 37.8321V42.9492C35.332 42.5781 42.9688 35.3711 42.9688 26.5625V10.0196Z" fill="white"/>
</svg>
