<svg width="48" height="44" viewBox="0 0 48 44" fill="none" xmlns="http://www.w3.org/2000/svg">
<path d="M36.3854 26.7437C35.6376 24.0329 34.0211 21.6423 31.7838 19.9386C29.5466 18.235 26.8122 17.3124 24.0001 17.3124C21.1881 17.3124 18.4537 18.235 16.2164 19.9386C13.9792 21.6423 12.3627 24.0329 11.6149 26.7437L9.83283 33.2037C9.51287 34.3635 9.46513 35.5816 9.69334 36.763C9.92155 37.9444 10.4195 39.057 11.1485 40.0143C11.8774 40.9715 12.8176 41.7475 13.8957 42.2816C14.9738 42.8158 16.1608 43.0937 17.364 43.0937H30.6362C31.8394 43.0937 33.0264 42.8158 34.1045 42.2816C35.1826 41.7475 36.1228 40.9715 36.8518 40.0143C37.5807 39.057 38.0787 37.9444 38.3069 36.763C38.5351 35.5816 38.4874 34.3635 38.1674 33.2037L36.3854 26.7437ZM34.3656 38.1207C33.9302 38.6971 33.3665 39.1642 32.7191 39.485C32.0718 39.8058 31.3587 39.9714 30.6362 39.9687H17.364C16.6421 39.9687 15.9299 39.802 15.283 39.4815C14.6361 39.161 14.072 38.6954 13.6346 38.1211C13.1972 37.5467 12.8984 36.8791 12.7615 36.1703C12.6246 35.4614 12.6532 34.7306 12.8452 34.0346L14.6273 27.5748C15.1932 25.5233 16.4165 23.7142 18.1096 22.4249C19.8027 21.1356 21.872 20.4374 24.0001 20.4374C26.1282 20.4374 28.1975 21.1356 29.8906 22.4249C31.5837 23.7142 32.807 25.5233 33.373 27.5748L35.155 34.0346C35.3498 34.7303 35.3798 35.4617 35.2428 36.171C35.1058 36.8803 34.8055 37.548 34.3656 38.1211V38.1207ZM13.2677 19.4912C13.5396 17.792 13.179 15.9729 12.2521 14.3678C11.3251 12.7628 9.9298 11.541 8.32267 10.9268C6.60158 10.2695 4.84611 10.3742 3.37794 11.2214C0.459291 12.9066 -0.308775 17.0598 1.66613 20.4797C2.59279 22.0848 3.9882 23.3069 5.59533 23.9208C6.30725 24.1982 7.06398 24.3429 7.82804 24.3476C8.77994 24.3511 9.71573 24.1021 10.5401 23.626C12.0073 22.7787 12.9761 21.3102 13.2677 19.4912ZM10.1818 18.9972C10.0421 19.8692 9.61437 20.5519 8.97736 20.9197C8.34035 21.2875 7.53527 21.3164 6.71007 21.0014C5.7713 20.6429 4.94103 19.9027 4.37208 18.9172C3.27833 17.0227 3.53829 14.7376 4.94044 13.9278C5.29292 13.7278 5.69212 13.6247 6.09738 13.6292C6.47753 13.6331 6.85376 13.7065 7.20753 13.8457C8.1463 14.2044 8.97658 14.9445 9.54552 15.9299C10.1145 16.9154 10.3403 18.0049 10.1818 18.9972ZM13.6062 13.0172C14.7157 13.9043 15.9828 14.3662 17.2642 14.3661C17.648 14.366 18.0307 14.3247 18.4057 14.2429C21.6989 13.527 23.6957 9.80514 22.8568 5.94625C22.4633 4.13512 21.5065 2.54615 20.1627 1.47184C18.7237 0.321447 17.0193 -0.114002 15.3632 0.246154C12.07 0.961974 10.0733 4.68385 10.912 8.54274C11.3057 10.354 12.2625 11.9429 13.6062 13.0172ZM16.0269 3.29986C16.1787 3.26712 16.3336 3.25075 16.489 3.25104C17.0698 3.25104 17.6673 3.47828 18.2113 3.91324C18.9962 4.54068 19.5615 5.4986 19.8031 6.61061C20.268 8.74879 19.324 10.8458 17.7419 11.1897C17.0231 11.346 16.2473 11.1284 15.5576 10.5769C14.7728 9.94938 14.2074 8.99147 13.9658 7.87955C13.5009 5.74078 14.4448 3.64381 16.0269 3.29986ZM44.6223 11.2214C43.1547 10.3742 41.3984 10.2695 39.6776 10.9268C38.0704 11.5408 36.675 12.7628 35.7484 14.3678C34.8217 15.9729 34.461 17.7923 34.7327 19.4912C35.0239 21.3102 35.9925 22.7787 37.4604 23.626C38.2847 24.1021 39.2205 24.3511 40.1724 24.3476C40.9364 24.3429 41.6932 24.1982 42.4051 23.9208C44.0122 23.3069 45.4076 22.0848 46.3343 20.4797C48.309 17.0598 47.5409 12.9066 44.6223 11.2214ZM43.6281 18.9172C43.0592 19.9027 42.2289 20.6429 41.2901 21.0014C40.4653 21.3167 39.6601 21.2877 39.0231 20.9197C38.386 20.5517 37.9586 19.8692 37.8187 18.9972C37.6599 18.0049 37.8857 16.9158 38.4547 15.9308C39.0237 14.9459 39.8539 14.2052 40.7927 13.8465C41.1464 13.7072 41.5227 13.6337 41.9028 13.6296C42.3081 13.6252 42.7073 13.7283 43.0598 13.9283C44.4619 14.7374 44.7222 17.0222 43.6281 18.9172ZM29.5945 14.2429C29.9695 14.3247 30.3522 14.366 30.7361 14.3661C32.0173 14.3661 33.2849 13.9043 34.3941 13.0172C35.7377 11.943 36.6945 10.354 37.0882 8.54283C37.927 4.68395 35.9302 0.962072 32.637 0.246251C30.9811 -0.11371 29.2765 0.321447 27.8375 1.47193C26.4938 2.54615 25.5369 4.13522 25.1434 5.94625C24.3045 9.80514 26.3013 13.527 29.5945 14.2429ZM28.1971 6.61012C28.4387 5.49811 29.004 4.53981 29.7889 3.91276C30.333 3.47779 30.9304 3.25055 31.5112 3.25055C31.6666 3.25026 31.8215 3.26663 31.9734 3.29938C33.5554 3.64332 34.4993 5.74078 34.0346 7.87848C33.7928 8.99049 33.2275 9.94879 32.4428 10.5759C31.7532 11.1273 30.9779 11.3449 30.2585 11.1887C28.6762 10.8453 27.7322 8.74801 28.1971 6.61012Z" fill="black"/>
</svg>
